<svg width="147" height="147" viewBox="0 0 147 147" fill="none" xmlns="http://www.w3.org/2000/svg">
<g clip-path="url(#clip0_72_509)">
<path fill-rule="evenodd" clip-rule="evenodd" d="M62.4607 31.9078C57.0407 29.7446 52.9782 29.7552 49.2388 31.9256C46.2848 33.6248 44.2519 37.4134 43.9488 41.7131C43.4443 49.3003 47.1823 58.4293 54.3468 67.0752L55.9935 69.0709L54.166 69.6291C50.2026 70.8532 45.8092 72.9113 43.6135 74.572C41.144 76.424 39.2752 79.0669 38.6426 81.5231C38.0139 84.0365 38.9834 87.6443 40.9983 90.3896C42.0755 91.8364 44.9683 94.4056 46.9081 95.663C49.7776 97.4872 53.9557 99.134 56.9907 99.6258L58.878 99.9249L57.6559 101.546C55.3804 104.534 53.5681 108.192 53.0351 110.842C52.7274 112.4 52.8696 115.879 53.3135 117.714C53.7747 119.592 54.6924 121.839 55.9092 124.051C56.7618 125.571 56.997 125.856 57.7932 126.361C58.5893 126.865 58.7614 127.069 59.2851 128.195C60.3689 130.56 61.601 132.168 63.802 134.082C66.0468 136.008 67.7341 136.938 69.9863 137.527C74.6182 138.683 79.3598 137.089 82.7245 133.251C85.6107 129.962 90.5119 120.776 95.3307 109.586C96.2216 107.537 96.7203 106.413 96.9938 105.897L97.3358 101.488L96.3482 103.384C92.8665 110.074 88.8313 117.06 85.5749 122.04C83.6025 125.049 79.8085 129.936 78.4614 131.208C76.3335 133.223 73.7138 133.951 71.0363 133.233C69.2666 132.768 68.1615 132.156 66.5566 130.76C61.9539 126.731 60.5903 120.15 63.1503 114.243C63.6573 113.073 66.4605 109.417 67.6121 108.433C73.7241 103.225 83.3037 98.5369 95.4226 94.8488C96.4425 94.533 97.3579 94.2759 97.9061 94.1393L98.2662 89.4979C97.7745 89.6682 95.6777 90.2397 93.4741 90.7923C74.6267 95.5815 61.2658 96.9012 54.6847 94.5605C49.2979 92.6678 44.9624 89.3809 43.4372 86.0415C41.538 81.8667 44.0939 78.3719 51.2073 75.3775C54.2769 74.1009 56.567 73.3812 61.1863 72.2981L64.3775 71.5299L63.7522 70.7982C63.3794 70.3935 62.156 69.1148 61.0109 67.9313C53.7494 60.5699 49.1834 52.3314 48.3647 45.1236C48.1182 43.0303 48.4067 40.1674 49.0141 38.7898C49.8674 36.8207 50.8702 35.7601 52.5336 35.1128C55.4949 33.9299 60.5501 35.1853 65.2319 38.2902C67.084 39.525 71.2879 43.3954 73.439 45.8297C75.6227 48.3191 81.3883 55.6412 83.899 59.1129C88.2504 65.0979 93.8046 73.7126 95.2792 76.7397C95.7816 77.7671 96.906 79.6843 97.758 80.9888L98.7118 82.4211L98.7712 79.5953L99.0543 76.641C98.9098 75.9164 98.7616 74.9203 98.7448 74.3781C98.4603 74.0965 98.0477 73.638 97.4612 72.9271C95.6152 70.6901 95.8577 68.1102 96.2097 67.0998L96.6511 66.5923C96.391 65.8158 96.0107 64.6384 95.6077 63.3356C90.651 47.6441 84.9379 35.1065 79.5697 28.13C75.6861 23.0886 71.2602 19.5352 68.0744 18.9391C64.5835 18.2924 61.9113 19.2972 60.2977 21.8936C59.1886 23.6939 58.6203 27.2798 59.0789 29.5306L59.255 30.4085L59.6743 29.2163C60.307 27.3775 61.0952 25.9155 62.0654 24.7997C62.8762 23.8673 63.0682 23.7391 64.3515 23.4055C66.1126 22.9237 67.2277 23.0613 68.8977 23.9498C75.0129 27.2275 81.7507 37.784 87.4298 52.9226C88.911 56.8681 91.7433 65.1558 91.7984 65.7406C91.8217 65.8682 91.1379 64.7099 90.2966 63.1461C88.2365 59.3415 84.0326 52.3843 82.3254 49.9334C79.2957 45.6078 75.2806 41.1499 71.169 37.5745C67.7758 34.6239 65.3396 33.0422 62.4607 31.9078ZM58.5436 108.304C59.2268 106.778 59.5511 106.281 61.5143 103.962C62.7065 102.529 63.811 101.074 63.9891 100.746C64.2636 100.152 64.3626 100.131 68.6031 99.7921C71.1291 99.5728 72.7486 99.5316 72.5014 99.6924C64.7719 104.352 60.4316 108.819 58.5821 114.001C58.3083 114.81 57.9933 115.852 57.9129 116.345L57.7328 117.262L57.4942 116.518C57.1154 115.41 57.1082 112.424 57.4491 111.137C57.6358 110.521 58.1216 109.253 58.5436 108.304Z" fill="black"/>
<path d="M71.886 59.9679C72.8124 59.4582 73.2257 59.415 74.2478 59.6596C78.2657 60.6571 85.05 68.9993 92.0244 81.5063L93.3674 83.8821L91.2123 84.4776C84.3906 86.303 77.5816 87.2805 73.5258 86.9747C69.8608 86.7135 67.2597 85.4449 66.3161 83.4432C65.7924 82.3168 65.5386 80.3245 65.8157 79.3575C66.0929 78.3906 67.3044 77.0283 68.4248 76.4189C69.5871 75.7922 71.8147 75.2061 73.5426 75.0712C74.2835 74.9908 74.8816 74.9204 74.8644 74.8785C74.8604 74.8214 74.3075 74.099 73.6456 73.255C71.44 70.4512 69.8584 67.3311 69.5141 65.0723C69.2125 63.0115 70.1741 60.9488 71.886 59.9679Z" fill="#00D2D2"/>
<path d="M76.088 108.395C78.7568 106.314 83.426 104.093 88.2082 102.668L90.8392 101.896L90.5448 102.821C89.9692 104.656 87.4419 110.618 86.2769 112.853C84.5816 116.13 83.1341 118.227 81.9632 119.141C80.0147 120.641 77.8914 121.076 75.5628 120.42C72.2102 119.491 70.9569 116.549 72.4149 112.959C72.9785 111.57 74.5502 109.608 76.088 108.395Z" fill="#00D2D2"/>
</g>
<defs>
<clipPath id="clip0_72_509">
<rect width="103.707" height="103.707" fill="white" transform="matrix(-0.656187 0.754598 0.754598 0.656187 68.2661 0.69165)"/>
</clipPath>
</defs>
</svg>
