<svg width="123" height="124" viewBox="0 0 123 124" fill="none" xmlns="http://www.w3.org/2000/svg">
<g clip-path="url(#clip0_72_498)">
<path fill-rule="evenodd" clip-rule="evenodd" d="M52.2183 26.9256C47.6714 25.1109 44.2634 25.1198 41.1264 26.9405C38.6483 28.366 36.9429 31.5443 36.6886 35.1513C36.2654 41.5162 39.4012 49.1745 45.4115 56.4276L46.793 58.1018L45.2598 58.5701C41.9349 59.597 38.2493 61.3235 36.4073 62.7166C34.3356 64.2703 32.7679 66.4875 32.2372 68.548C31.7098 70.6564 32.5231 73.6831 34.2134 75.9861C35.1171 77.1998 37.5439 79.3551 39.1712 80.4099C41.5784 81.9403 45.0834 83.3218 47.6295 83.7343L49.2128 83.9852L48.1875 85.3455C46.2786 87.8514 44.7583 90.9204 44.3111 93.1437C44.053 94.4505 44.1723 97.369 44.5447 98.9088C44.9316 100.484 45.7014 102.369 46.7222 104.225C47.4374 105.5 47.6348 105.739 48.3027 106.162C48.9705 106.586 49.1149 106.756 49.5542 107.701C50.4635 109.685 51.4971 111.034 53.3435 112.64C55.2267 114.255 56.6421 115.036 58.5315 115.53C62.4172 116.5 66.395 115.162 69.2176 111.942C71.6388 109.184 75.7505 101.478 79.793 92.0899C80.5404 90.3708 80.9587 89.4285 81.1881 88.9952L81.4751 85.2967L80.6466 86.8874C77.7258 92.4991 74.3406 98.36 71.6088 102.537C69.9541 105.062 66.7713 109.162 65.6413 110.228C63.8562 111.919 61.6585 112.53 59.4124 111.928C57.9278 111.537 57.0007 111.024 55.6543 109.853C51.7931 106.473 50.6492 100.952 52.7968 95.9965C53.2221 95.0153 55.5737 91.9486 56.5398 91.1224C61.6672 86.7539 69.7035 82.8209 79.87 79.7269C80.7257 79.462 81.4936 79.2463 81.9534 79.1317L82.2556 75.238C81.8431 75.3809 80.0841 75.8603 78.2355 76.3239C62.4243 80.3416 51.2159 81.4487 45.695 79.4851C41.176 77.8973 37.5389 75.1399 36.2595 72.3384C34.6662 68.8362 36.8104 65.9044 42.7778 63.3924C45.3529 62.3215 47.274 61.7177 51.1492 60.8091L53.8263 60.1646L53.3017 59.5508C52.989 59.2113 51.9626 58.1387 51.0021 57.1457C44.9104 50.9703 41.0799 44.059 40.3931 38.0124C40.1863 36.2563 40.4283 33.8546 40.9379 32.6989C41.6537 31.047 42.495 30.1573 43.8904 29.6143C46.3746 28.622 50.6155 29.6751 54.543 32.2798C56.0967 33.3157 59.6234 36.5625 61.428 38.6047C63.2599 40.6931 68.0967 46.8356 70.2029 49.748C73.8533 54.7689 78.5127 61.9957 79.7498 64.5351C80.1713 65.397 81.1145 67.0054 81.8292 68.0998L82.6294 69.3013L82.6793 66.9307L82.9167 64.4523C82.7955 63.8445 82.6712 63.0089 82.657 62.554C82.4184 62.3178 82.0723 61.9332 81.5802 61.3368C80.0317 59.4601 80.2351 57.2958 80.5304 56.4483L80.9006 56.0225C80.6824 55.3711 80.3635 54.3833 80.0253 53.2904C75.8671 40.1268 71.0745 29.609 66.5711 23.7564C63.3131 19.5272 59.6002 16.5462 56.9276 16.0461C53.9991 15.5036 51.7574 16.3466 50.4038 18.5247C49.4733 20.0349 48.9966 23.0432 49.3812 24.9314L49.529 25.6679L49.8808 24.6677C50.4115 23.1251 51.0727 21.8986 51.8867 20.9626C52.5668 20.1805 52.7279 20.0729 53.8045 19.793C55.2818 19.3888 56.2173 19.5043 57.6183 20.2496C62.7483 22.9993 68.4007 31.8552 73.1649 44.555C74.4075 47.8648 76.7835 54.8174 76.8297 55.308C76.8493 55.415 76.2756 54.4433 75.5698 53.1315C73.8416 49.9398 70.315 44.1034 68.8828 42.0473C66.3412 38.4185 62.9729 34.6788 59.5237 31.6794C56.6771 29.2041 54.6334 27.8773 52.2183 26.9256ZM48.9323 91.0147C49.5054 89.7341 49.7774 89.3177 51.4243 87.3721C52.4245 86.1701 53.351 84.9492 53.5004 84.6738C53.7307 84.176 53.8138 84.1581 57.3711 83.8738C59.4902 83.6899 60.8488 83.6553 60.6414 83.7902C54.1571 87.6993 50.5161 91.4462 48.9645 95.7941C48.7348 96.4726 48.4706 97.3462 48.4031 97.7604L48.252 98.5297L48.0519 97.9053C47.7341 96.976 47.728 94.4712 48.014 93.3913C48.1707 92.8745 48.5782 91.8102 48.9323 91.0147Z" fill="#00D2D2"/>
<path d="M60.1253 50.4653C60.9024 50.0377 61.2492 50.0015 62.1066 50.2066C65.4772 51.0435 71.1686 58.0418 77.0194 68.5339L78.1461 70.527L76.3381 71.0265C70.6154 72.5578 64.9033 73.3779 61.5009 73.1214C58.4263 72.9022 56.2443 71.838 55.4527 70.1588C55.0134 69.2138 54.8004 67.5424 55.0329 66.7313C55.2654 65.9201 56.2817 64.7773 57.2217 64.2661C58.1967 63.7404 60.0655 63.2487 61.515 63.1355C62.1366 63.0681 62.6383 63.009 62.6238 62.9738C62.6205 62.9259 62.1566 62.3199 61.6014 61.6119C59.7511 59.2598 58.4243 56.6423 58.1355 54.7474C57.8824 53.0186 58.6892 51.2881 60.1253 50.4653Z" fill="black"/>
<path d="M63.65 91.0908C65.8889 89.3448 69.8059 87.4817 73.8177 86.2865L76.0248 85.6387L75.7778 86.4147C75.295 87.954 73.1748 92.9558 72.1975 94.8306C70.7753 97.5796 69.561 99.3385 68.5787 100.106C66.9441 101.364 65.1629 101.729 63.2095 101.179C60.3969 100.399 59.3455 97.9313 60.5687 94.9191C61.0414 93.754 62.3599 92.1083 63.65 91.0908Z" fill="black"/>
</g>
<defs>
<clipPath id="clip0_72_498">
<rect width="87" height="87" fill="white" transform="matrix(-0.656187 0.754598 0.754598 0.656187 57.0884 0.738281)"/>
</clipPath>
</defs>
</svg>
