<svg width="49" height="49" viewBox="0 0 49 49" fill="none" xmlns="http://www.w3.org/2000/svg">
<path d="M19.6446 9.01297C17.9724 9.26342 16.6259 9.72048 15.3859 10.4468C12.6554 12.0496 10.8204 14.623 10.144 17.7723C10.0188 18.3859 10 18.6238 10 19.9324C10.0063 21.2222 10.0251 21.4852 10.144 22.0612C11.1774 26.8385 14.9726 30.2884 19.7698 30.8268C23.2895 31.2213 26.9719 29.7499 29.2453 27.0388C32.1136 23.6202 32.6961 18.9619 30.7358 15.0487C29.214 12.0058 26.4709 9.8958 23.0828 9.16324C22.5881 9.05054 22.206 9.0255 21.1476 9.00671C20.4274 8.99419 19.751 9.00045 19.6446 9.01297ZM22.5505 11.5362C24.1788 11.8555 25.6004 12.6006 26.8091 13.7589C28.1807 15.0926 29.0386 16.6829 29.3518 18.5174C29.477 19.2437 29.4708 20.6149 29.3455 21.3412C29.1514 22.4682 28.6629 23.6766 28.0116 24.6596L27.7235 25.0979L27.6859 24.622C27.5857 23.4136 27.0346 22.4494 26.0826 21.8108C25.3875 21.3474 24.9679 21.2347 23.8406 21.2034L22.9012 21.1721L21.9618 22.9753C21.4482 23.9646 20.9911 24.8099 20.9597 24.86C20.9096 24.9226 20.6591 24.4905 19.9139 23.0818L18.9369 21.216L18.2292 21.1972C17.3086 21.1721 16.8264 21.2598 16.175 21.5666C15.054 22.0925 14.1835 23.3573 14.1584 24.5031C14.1522 25.0666 14.0896 25.0854 13.7764 24.597C13.1689 23.6641 12.7619 22.6623 12.5301 21.5415C12.3548 20.7213 12.3423 19.2938 12.4926 18.4548C12.812 16.7017 13.6261 15.1489 14.8849 13.8904C16.9078 11.8618 19.7448 10.9915 22.5505 11.5362Z" fill="#6F00B4"/>
<path d="M20.1769 12.8325C19.0308 13.0767 17.985 14.0409 17.6656 15.1366C17.2147 16.658 17.9474 18.887 19.2939 20.133C20.4713 21.2224 21.8177 21.0722 22.9388 19.7198C23.3709 19.2001 23.9345 18.1106 24.1224 17.4282C24.6485 15.5498 23.9721 13.8781 22.3751 13.0767C21.7238 12.7511 20.941 12.6634 20.1769 12.8325Z" fill="#6F00B4"/>
<path d="M30.0094 27.64C29.596 28.1472 28.8257 28.8985 28.3059 29.2992C28.2057 29.3744 28.1306 29.462 28.1306 29.4871C28.1306 29.5184 28.4625 29.8752 28.8633 30.276L29.6023 31.0148L29.2704 31.3466L28.9447 31.6722L32.4393 35.1597C36.5038 39.2232 36.2095 38.9978 37.3994 38.9978C38.0945 38.9978 38.1384 38.9915 38.558 38.7849C39.1028 38.5156 39.5162 38.0961 39.7917 37.5452C39.9921 37.1382 39.9984 37.0881 39.9984 36.3994C39.9984 35.191 40.1988 35.4414 36.128 31.3967L32.671 27.9531L32.3391 28.2787L32.0134 28.6042L31.2431 27.8341L30.4791 27.0703L30.0094 27.64Z" fill="#6F00B4"/>
<rect x="0.5" y="0.5" width="48" height="48" rx="6.5" stroke="url(#paint0_linear_53_74)"/>
<defs>
<linearGradient id="paint0_linear_53_74" x1="5.93576e-07" y1="46" x2="49" y2="3.5" gradientUnits="userSpaceOnUse">
<stop stop-color="#6F00B4"/>
<stop offset="1" stop-color="#6F00B4"/>
</linearGradient>
</defs>
</svg>
