<svg width="36" height="36" viewBox="0 0 36 36" fill="none" xmlns="http://www.w3.org/2000/svg">
<path d="M11.5735 0.0157146C9.56692 0.31625 7.95114 0.864727 6.46312 1.73628C3.18647 3.65971 0.984498 6.74771 0.172851 10.5269C0.0225458 11.2633 0 11.5488 0 13.1191C0.00751525 14.6668 0.030061 14.9824 0.172851 15.6736C1.41287 21.4063 5.96711 25.5462 11.7238 26.1923C15.9474 26.6657 20.3663 24.9 23.0944 21.6467C26.5364 17.5444 27.2353 11.9545 24.883 7.25862C23.0568 3.60711 19.7651 1.0751 15.6994 0.196035C15.1057 0.0607948 14.6472 0.0307426 13.3772 0.0082016C12.5129 -0.00682449 11.7013 0.000688553 11.5735 0.0157146ZM15.0606 3.04361C17.0145 3.42679 18.7205 4.32088 20.1709 5.71086C21.8168 7.31121 22.8464 9.21961 23.2221 11.421C23.3724 12.2926 23.3649 13.938 23.2146 14.8096C22.9816 16.162 22.3955 17.6121 21.6139 18.7917L21.2682 19.3176L21.2231 18.7466C21.1028 17.2965 20.4415 16.1394 19.2992 15.3731C18.465 14.8171 17.9615 14.6818 16.6087 14.6443L15.4814 14.6067L14.3541 16.7706C13.7379 17.9577 13.1893 18.972 13.1517 19.0321C13.0916 19.1072 12.791 18.5888 11.8966 16.8983L10.7243 14.6593L9.87504 14.6368C8.7703 14.6067 8.19163 14.7119 7.41004 15.0801C6.06481 15.7112 5.02019 17.2289 4.99013 18.6038C4.98261 19.28 4.90746 19.3026 4.5317 18.7165C3.80272 17.597 3.31423 16.3949 3.03616 15.05C2.82574 14.0657 2.81071 12.3527 2.99107 11.3459C3.37435 9.24215 4.35133 7.37883 5.8619 5.86864C8.28933 3.43431 11.6937 2.38994 15.0606 3.04361Z" fill="white"/>
<path d="M12.2123 4.59886C10.837 4.89188 9.58195 6.04894 9.19867 7.36378C8.65757 9.18954 9.53686 11.8643 11.1526 13.3595C12.5655 14.6668 14.1813 14.4865 15.5265 12.8636C16.0451 12.24 16.7214 10.9326 16.9469 10.1137C17.5782 7.85967 16.7665 5.85359 14.8501 4.89188C14.0686 4.50118 13.1291 4.396 12.2123 4.59886Z" fill="white"/>
<path d="M24.0112 22.368C23.5152 22.9766 22.5909 23.8782 21.9671 24.3591C21.8469 24.4492 21.7567 24.5544 21.7567 24.5845C21.7567 24.622 22.155 25.0503 22.636 25.5312L23.5228 26.4177L23.1244 26.8159L22.7337 27.2066L26.9272 31.3916C31.8046 36.2678 31.4513 35.9973 32.8792 35.9973C33.7134 35.9973 33.766 35.9898 34.2696 35.7418C34.9234 35.4188 35.4194 34.9154 35.7501 34.2542C35.9906 33.7658 35.9981 33.7057 35.9981 32.8792C35.9981 31.4292 36.2386 31.7297 31.3536 26.8761L27.2052 22.7437L26.8069 23.1344L26.4161 23.5251L25.4918 22.6009L24.5749 21.6843L24.0112 22.368Z" fill="white"/>
</svg>
