<svg width="49" height="49" viewBox="0 0 49 49" fill="none" xmlns="http://www.w3.org/2000/svg">
<path d="M33.8941 10.1732C33.7241 10.3858 33.4019 11.6612 33.4546 11.898C33.478 11.9952 33.5718 12.1045 33.6714 12.1592C34.1168 12.3961 34.3218 12.1956 34.5562 11.3089C34.7672 10.4951 34.7672 10.3433 34.5797 10.155C34.3804 9.94245 34.0757 9.94852 33.8941 10.1732Z" fill="#028C5A"/>
<path d="M26.9737 10.4283C26.6163 10.5255 26.2119 10.7684 25.96 11.0478C25.8311 11.1875 25.5029 11.6491 25.2334 12.0681C24.0731 13.884 22.9246 15.3295 21.3132 16.9875C20.1236 18.2143 19.1978 19.0463 17.9672 19.9816C17.0472 20.6861 16.9711 20.7651 16.9711 21.0141C16.9711 21.1416 17.4516 22.0587 18.6411 24.1904C19.5552 25.8302 20.3229 27.2453 20.3404 27.3303C20.3873 27.5065 20.2467 27.8223 20.106 27.883C19.9303 27.9498 19.6783 27.9194 19.5611 27.8101C19.4908 27.7555 18.7114 26.395 17.8207 24.7917C16.93 23.1883 16.139 21.8158 16.0569 21.7368C15.9749 21.6639 15.846 21.6032 15.764 21.6032C15.6819 21.6032 14.674 22.168 13.4083 22.9211C11.4687 24.075 11.1523 24.2815 10.8124 24.6338C10.1268 25.3504 9.86902 26.2432 10.0624 27.2028C10.1503 27.634 10.2206 27.7737 11.7207 30.4702C12.752 32.3287 13.0802 32.8753 13.3439 33.1486C14.217 34.0717 15.5764 34.26 16.6722 33.6162C16.8539 33.5069 18.0024 32.8206 19.2271 32.0918C20.4518 31.3569 21.7585 30.5978 22.1277 30.4095C25.7139 28.5571 29.7454 27.4579 33.9351 27.1967C34.5856 27.1542 34.902 27.1056 35.1481 27.0084C35.611 26.8323 36.0271 26.4254 36.2615 25.9274C36.4373 25.563 36.4548 25.4719 36.449 25.0043C36.449 24.652 36.4138 24.4091 36.3435 24.2451C36.1325 23.7349 29.177 11.315 28.966 11.0599C28.5266 10.5437 27.63 10.2583 26.9737 10.4283Z" fill="#028C5A"/>
<path d="M37.8495 14.0481C37.2752 14.3943 37.0584 14.5583 37.0115 14.6858C36.8943 14.9773 37.0643 15.3113 37.369 15.3781C37.5155 15.4146 37.6737 15.3417 38.33 14.953C38.7636 14.6979 39.1445 14.4368 39.1796 14.3761C39.3496 14.042 39.1269 13.5865 38.787 13.5865C38.6816 13.5865 38.3182 13.7687 37.8495 14.0481Z" fill="#028C5A"/>
<path d="M32.9741 14.9469C32.8218 15.032 32.6811 15.2567 32.6753 15.4146C32.6753 15.4935 33.6363 17.2852 34.316 18.4573C34.609 18.9675 34.902 19.0646 35.2008 18.7549C35.3649 18.5848 35.3708 18.5545 35.3708 18.0079C35.3708 17.6981 35.3356 17.3034 35.2887 17.1394C35.0661 16.2648 34.4274 15.4571 33.6656 15.0745C33.1851 14.8376 33.1734 14.8315 32.9741 14.9469Z" fill="#028C5A"/>
<path d="M37.9784 19.2649C37.7381 19.5079 37.7967 19.9026 38.0956 20.0666C38.289 20.1698 39.3261 20.4492 39.5254 20.4492C39.7656 20.4492 40 20.2124 40 19.9755C40 19.6415 39.8301 19.5079 39.1035 19.3014C38.2948 19.0706 38.16 19.0706 37.9784 19.2649Z" fill="#028C5A"/>
<path d="M20.7506 32.3894C20.2408 32.6627 17.6156 34.2539 17.5629 34.3207C17.5277 34.3632 17.4867 34.4786 17.4691 34.5758C17.4398 34.7215 17.6332 35.1102 18.6997 37.0294C20.0592 39.4769 20.235 39.7199 20.7623 39.9081C21.1022 40.0296 21.5124 40.0296 21.8347 39.9142C22.2273 39.7684 23.4461 38.9971 23.6219 38.7785C23.9208 38.4141 24.0145 38.0983 23.9911 37.582L23.9735 37.1205L22.6843 34.7944C21.2311 32.1768 21.2077 32.1404 20.7506 32.3894Z" fill="#028C5A"/>
<rect x="0.5" y="0.5" width="48" height="48" rx="6.5" stroke="url(#paint0_linear_44_542)"/>
<defs>
<linearGradient id="paint0_linear_44_542" x1="0" y1="49" x2="49" y2="0" gradientUnits="userSpaceOnUse">
<stop stop-color="#028C5A"/>
<stop offset="1" stop-color="#028C5A"/>
</linearGradient>
</defs>
</svg>
