<svg width="36" height="36" viewBox="0 0 36 36" fill="none" xmlns="http://www.w3.org/2000/svg">
<path d="M28.6729 0.207877C28.469 0.462956 28.0822 1.99343 28.1455 2.27766C28.1737 2.39427 28.2862 2.52545 28.4057 2.59104C28.9401 2.87527 29.1862 2.63477 29.4675 1.57073C29.7206 0.594139 29.7206 0.41194 29.4956 0.186013C29.2565 -0.0690658 28.8909 -0.0617781 28.6729 0.207877Z" fill="white"/>
<path d="M20.3685 0.513933C19.9395 0.630541 19.4543 0.92206 19.152 1.25731C18.9973 1.42493 18.6035 1.97882 18.28 2.48169C16.8877 4.66079 15.5095 6.39532 13.5758 8.38494C12.1484 9.85711 11.0373 10.8556 9.56068 11.9779C8.45669 12.8233 8.36528 12.9181 8.36528 13.2169C8.36528 13.3699 8.94188 14.4704 10.3693 17.0285C11.4663 18.9962 12.3874 20.6943 12.4085 20.7963C12.4648 21.0077 12.296 21.3867 12.1273 21.4596C11.9163 21.5397 11.6139 21.5033 11.4733 21.3721C11.3889 21.3065 10.4537 19.674 9.38488 17.75C8.31606 15.826 7.36678 14.1789 7.26833 14.0841C7.16989 13.9967 7.01519 13.9238 6.91674 13.9238C6.8183 13.9238 5.60884 14.6016 4.08999 15.5053C1.76248 16.89 1.38277 17.1378 0.974928 17.5605C0.152215 18.4205 -0.157182 19.4918 0.0748657 20.6433C0.180342 21.1607 0.264722 21.3284 2.06485 24.5642C3.30243 26.7943 3.69621 27.4503 4.01264 27.7782C5.06037 28.886 6.69173 29.1119 8.00666 28.3394C8.22465 28.2082 9.60287 27.3847 11.0725 26.5101C12.5421 25.6283 14.1102 24.7173 14.5532 24.4913C18.8566 22.2685 23.6945 20.9494 28.7222 20.636C29.5027 20.585 29.8824 20.5267 30.1777 20.4101C30.7332 20.1987 31.2325 19.7104 31.5138 19.1128C31.7247 18.6756 31.7458 18.5662 31.7388 18.0051C31.7388 17.5824 31.6966 17.2908 31.6122 17.0941C31.3591 16.4819 23.0124 1.57798 22.7592 1.27188C22.2319 0.652405 21.156 0.30987 20.3685 0.513933Z" fill="white"/>
<path d="M33.4194 4.85757C32.7303 5.27298 32.4701 5.46975 32.4138 5.6228C32.2732 5.97262 32.4771 6.37346 32.8428 6.45363C33.0186 6.49736 33.2084 6.4099 33.996 5.94347C34.5163 5.63738 34.9734 5.32399 35.0156 5.25112C35.2195 4.85028 34.9523 4.30368 34.5444 4.30368C34.4179 4.30368 33.9819 4.52232 33.4194 4.85757Z" fill="white"/>
<path d="M27.5689 5.93618C27.3861 6.03821 27.2174 6.30786 27.2103 6.49735C27.2103 6.5921 28.3635 8.74205 29.1792 10.1486C29.5308 10.7608 29.8824 10.8774 30.241 10.5057C30.4379 10.3017 30.4449 10.2652 30.4449 9.60932C30.4449 9.23763 30.4027 8.76391 30.3465 8.56714C30.0793 7.51767 29.3128 6.54837 28.3987 6.08923C27.8221 5.805 27.808 5.79771 27.5689 5.93618Z" fill="white"/>
<path d="M33.5741 11.118C33.2858 11.4095 33.3561 11.8832 33.7147 12.08C33.9468 12.2039 35.1914 12.5391 35.4305 12.5391C35.7188 12.5391 36 12.2549 36 11.9707C36 11.5698 35.7961 11.4095 34.9242 11.1617C33.9538 10.8848 33.7921 10.8848 33.5741 11.118Z" fill="white"/>
<path d="M12.9007 26.8672C12.289 27.1952 9.13877 29.1047 9.07548 29.1848C9.03329 29.2358 8.98407 29.3743 8.96298 29.4909C8.92782 29.6658 9.15986 30.1323 10.4396 32.4353C12.071 35.3723 12.282 35.6638 12.9148 35.8898C13.3227 36.0355 13.8149 36.0355 14.2016 35.897C14.6727 35.7221 16.1353 34.7966 16.3463 34.5342C16.7049 34.0969 16.8174 33.7179 16.7893 33.0985L16.7682 32.5446L15.2212 29.7533C13.4773 26.6122 13.4492 26.5684 12.9007 26.8672Z" fill="white"/>
</svg>
