<svg width="123" height="124" viewBox="0 0 123 124" fill="none" xmlns="http://www.w3.org/2000/svg">
<g clip-path="url(#clip0_72_567)">
<path fill-rule="evenodd" clip-rule="evenodd" d="M52.2186 26.9256C47.6716 25.1109 44.2637 25.1198 41.1266 26.9405C38.6485 28.366 36.9431 31.5443 36.6889 35.1513C36.2656 41.5162 39.4015 49.1745 45.4117 56.4276L46.7932 58.1018L45.2601 58.5701C41.9352 59.597 38.2495 61.3235 36.4076 62.7166C34.3359 64.2703 32.7682 66.4875 32.2374 68.548C31.71 70.6564 32.5234 73.6831 34.2137 75.9861C35.1174 77.1998 37.5441 79.3551 39.1714 80.4099C41.5787 81.9403 45.0836 83.3218 47.6297 83.7343L49.213 83.9852L48.1877 85.3455C46.2789 87.8514 44.7585 90.9204 44.3114 93.1437C44.0533 94.4505 44.1725 97.369 44.5449 98.9088C44.9318 100.484 45.7017 102.369 46.7224 104.225C47.4377 105.5 47.635 105.739 48.3029 106.162C48.9708 106.586 49.1152 106.756 49.5545 107.701C50.4637 109.685 51.4973 111.034 53.3437 112.64C55.2269 114.255 56.6424 115.036 58.5317 115.53C62.4175 116.5 66.3952 115.162 69.2178 111.942C71.6391 109.184 75.7507 101.478 79.7932 92.0899C80.5406 90.3708 80.959 89.4285 81.1884 88.9952L81.4753 85.2967L80.6468 86.8874C77.726 92.4991 74.3408 98.36 71.6091 102.537C69.9544 105.062 66.7716 109.162 65.6415 110.228C63.8564 111.919 61.6588 112.53 59.4126 111.928C57.928 111.537 57.0009 111.024 55.6546 109.853C51.7934 106.473 50.6495 100.952 52.797 95.9965C53.2224 95.0153 55.5739 91.9486 56.5401 91.1224C61.6674 86.7539 69.7038 82.8209 79.8703 79.7269C80.7259 79.462 81.4939 79.2463 81.9537 79.1317L82.2558 75.238C81.8433 75.3809 80.0843 75.8603 78.2358 76.3239C62.4246 80.3416 51.2161 81.4487 45.6953 79.4851C41.1762 77.8973 37.5391 75.1399 36.2597 72.3384C34.6664 68.8362 36.8106 65.9044 42.7781 63.3924C45.3531 62.3215 47.2743 61.7177 51.1494 60.8091L53.8265 60.1646L53.302 59.5508C52.9892 59.2113 51.9629 58.1387 51.0023 57.1457C44.9106 50.9703 41.0802 44.059 40.3934 38.0124C40.1866 36.2563 40.4286 33.8546 40.9381 32.6989C41.654 31.047 42.4952 30.1573 43.8907 29.6143C46.3749 28.622 50.6157 29.6751 54.5432 32.2798C56.097 33.3157 59.6237 36.5625 61.4282 38.6047C63.2602 40.6931 68.0969 46.8356 70.2031 49.748C73.8535 54.7689 78.513 61.9957 79.75 64.5351C80.1715 65.397 81.1148 67.0054 81.8295 68.0998L82.6297 69.3013L82.6795 66.9307L82.9169 64.4523C82.7957 63.8445 82.6714 63.0089 82.6573 62.554C82.4186 62.3178 82.0725 61.9332 81.5805 61.3368C80.0319 59.4601 80.2353 57.2958 80.5306 56.4483L80.9009 56.0225C80.6827 55.3711 80.3637 54.3833 80.0256 53.2904C75.8674 40.1268 71.0747 29.609 66.5713 23.7564C63.3134 19.5272 59.6005 16.5462 56.9278 16.0461C53.9993 15.5036 51.7576 16.3466 50.404 18.5247C49.4735 20.0349 48.9968 23.0432 49.3815 24.9314L49.5292 25.6679L49.881 24.6677C50.4118 23.1251 51.073 21.8986 51.8869 20.9626C52.5671 20.1805 52.7282 20.0729 53.8047 19.793C55.2821 19.3888 56.2176 19.5043 57.6185 20.2496C62.7486 22.9993 68.4009 31.8552 73.1651 44.555C74.4078 47.8648 76.7837 54.8174 76.83 55.308C76.8495 55.415 76.2758 54.4433 75.5701 53.1315C73.8419 49.9398 70.3152 44.1034 68.883 42.0473C66.3415 38.4185 62.9731 34.6788 59.5239 31.6794C56.6774 29.2041 54.6336 27.8773 52.2186 26.9256ZM48.9325 91.0147C49.5056 89.7341 49.7777 89.3177 51.4245 87.3721C52.4247 86.1701 53.3513 84.9492 53.5007 84.6738C53.7309 84.176 53.814 84.1581 57.3714 83.8738C59.4904 83.6899 60.8491 83.6553 60.6417 83.7902C54.1574 87.6993 50.5163 91.4462 48.9648 95.7941C48.7351 96.4726 48.4708 97.3462 48.4034 97.7604L48.2523 98.5297L48.0521 97.9053C47.7344 96.976 47.7283 94.4712 48.0143 93.3913C48.1709 92.8745 48.5785 91.8102 48.9325 91.0147Z" fill="#E96A16"/>
<path d="M60.1253 50.4653C60.9024 50.0377 61.2492 50.0015 62.1066 50.2066C65.4772 51.0435 71.1686 58.0418 77.0194 68.5339L78.1461 70.527L76.3381 71.0265C70.6154 72.5578 64.9033 73.3779 61.5009 73.1214C58.4263 72.9022 56.2443 71.838 55.4527 70.1588C55.0134 69.2138 54.8004 67.5424 55.0329 66.7313C55.2654 65.9201 56.2817 64.7773 57.2217 64.2661C58.1967 63.7404 60.0655 63.2487 61.515 63.1355C62.1366 63.0681 62.6383 63.009 62.6238 62.9738C62.6205 62.9259 62.1566 62.3199 61.6014 61.6119C59.7511 59.2598 58.4243 56.6423 58.1355 54.7474C57.8824 53.0186 58.6892 51.2881 60.1253 50.4653Z" fill="black"/>
<path d="M63.6502 91.0908C65.8892 89.3448 69.8061 87.4817 73.8179 86.2865L76.025 85.6387L75.7781 86.4147C75.2952 87.954 73.175 92.9558 72.1977 94.8306C70.7755 97.5796 69.5613 99.3385 68.579 100.106C66.9444 101.364 65.1632 101.729 63.2097 101.179C60.3971 100.399 59.3457 97.9313 60.5689 94.9191C61.0417 93.754 62.3602 92.1083 63.6502 91.0908Z" fill="black"/>
</g>
<defs>
<clipPath id="clip0_72_567">
<rect width="87" height="87" fill="white" transform="matrix(-0.656187 0.754598 0.754598 0.656187 57.0884 0.738281)"/>
</clipPath>
</defs>
</svg>
