<svg width="147" height="147" viewBox="0 0 147 147" fill="none" xmlns="http://www.w3.org/2000/svg">
<g clip-path="url(#clip0_72_555)">
<path fill-rule="evenodd" clip-rule="evenodd" d="M62.461 31.9078C57.0409 29.7446 52.9785 29.7552 49.239 31.9256C46.2851 33.6248 44.2521 37.4134 43.9491 41.7131C43.4446 49.3003 47.1826 58.4293 54.347 67.0752L55.9938 69.0709L54.1663 69.6291C50.2028 70.8532 45.8094 72.9113 43.6137 74.572C41.1442 76.424 39.2755 79.0669 38.6428 81.5231C38.0141 84.0365 38.9836 87.6443 40.9985 90.3896C42.0758 91.8364 44.9685 94.4056 46.9084 95.663C49.7779 97.4872 53.9559 99.134 56.9909 99.6258L58.8783 99.9249L57.6561 101.546C55.3807 104.534 53.5684 108.192 53.0354 110.842C52.7277 112.4 52.8698 115.879 53.3137 117.714C53.7749 119.592 54.6926 121.839 55.9094 124.051C56.762 125.571 56.9973 125.856 57.7934 126.361C58.5895 126.865 58.7616 127.069 59.2853 128.195C60.3692 130.56 61.6012 132.168 63.8022 134.082C66.0471 136.008 67.7343 136.938 69.9865 137.527C74.6184 138.683 79.3601 137.089 82.7247 133.251C85.6109 129.962 90.5121 120.776 95.3309 109.586C96.2219 107.537 96.7206 106.413 96.994 105.897L97.3361 101.488L96.3484 103.384C92.8668 110.074 88.8315 117.06 85.5751 122.04C83.6027 125.049 79.8087 129.936 78.4616 131.208C76.3337 133.223 73.714 133.951 71.0366 133.233C69.2669 132.768 68.1617 132.156 66.5568 130.76C61.9542 126.731 60.5906 120.15 63.1505 114.243C63.6576 113.073 66.4607 109.417 67.6124 108.433C73.7244 103.225 83.304 98.5369 95.4228 94.8488C96.4428 94.533 97.3582 94.2759 97.9063 94.1393L98.2664 89.4979C97.7747 89.6682 95.6779 90.2397 93.4744 90.7923C74.6269 95.5815 61.266 96.9012 54.685 94.5605C49.2981 92.6678 44.9626 89.3809 43.4375 86.0415C41.5382 81.8667 44.0942 78.3719 51.2076 75.3775C54.2772 74.1009 56.5672 73.3812 61.1866 72.2981L64.3778 71.5299L63.7524 70.7982C63.3796 70.3935 62.1562 69.1148 61.0112 67.9313C53.7497 60.5699 49.1836 52.3314 48.365 45.1236C48.1185 43.0303 48.4069 40.1674 49.0143 38.7898C49.8676 36.8207 50.8705 35.7601 52.5338 35.1128C55.4951 33.9299 60.5504 35.1853 65.2321 38.2902C67.0842 39.525 71.2881 43.3954 73.4393 45.8297C75.623 48.3191 81.3885 55.6412 83.8992 59.1129C88.2506 65.0979 93.8049 73.7126 95.2795 76.7397C95.7819 77.7671 96.9063 79.6843 97.7582 80.9888L98.7121 82.4211L98.7715 79.5953L99.0545 76.641C98.91 75.9164 98.7619 74.9203 98.745 74.3781C98.4605 74.0965 98.048 73.638 97.4614 72.9271C95.6155 70.6901 95.858 68.1102 96.21 67.0998L96.6513 66.5923C96.3912 65.8158 96.011 64.6384 95.6079 63.3356C90.6512 47.6441 84.9382 35.1065 79.57 28.13C75.6864 23.0886 71.2605 19.5352 68.0746 18.9391C64.5837 18.2924 61.9115 19.2972 60.298 21.8936C59.1888 23.6939 58.6206 27.2798 59.0791 29.5306L59.2552 30.4085L59.6745 29.2163C60.3072 27.3775 61.0954 25.9155 62.0657 24.7997C62.8764 23.8673 63.0685 23.7391 64.3517 23.4055C66.1128 22.9237 67.2279 23.0613 68.898 23.9498C75.0131 27.2275 81.7509 37.784 87.43 52.9226C88.9113 56.8681 91.7435 65.1558 91.7987 65.7406C91.8219 65.8682 91.1381 64.7099 90.2968 63.1461C88.2367 59.3415 84.0328 52.3843 82.3256 49.9334C79.296 45.6078 75.2808 41.1499 71.1692 37.5745C67.7761 34.6239 65.3398 33.0422 62.461 31.9078ZM58.5439 108.304C59.2271 106.778 59.5514 106.281 61.5145 103.962C62.7067 102.529 63.8112 101.074 63.9893 100.746C64.2638 100.152 64.3628 100.131 68.6033 99.7921C71.1293 99.5728 72.7488 99.5316 72.5016 99.6924C64.7721 104.352 60.4319 108.819 58.5824 114.001C58.3086 114.81 57.9936 115.852 57.9131 116.345L57.733 117.262L57.4945 116.518C57.1157 115.41 57.1084 112.424 57.4493 111.137C57.6361 110.521 58.1219 109.253 58.5439 108.304Z" fill="black"/>
<path d="M71.886 59.9679C72.8124 59.4582 73.2257 59.415 74.2478 59.6596C78.2657 60.6571 85.05 68.9993 92.0244 81.5063L93.3674 83.8821L91.2123 84.4776C84.3906 86.303 77.5816 87.2805 73.5258 86.9747C69.8608 86.7135 67.2597 85.4449 66.3161 83.4432C65.7924 82.3168 65.5386 80.3245 65.8157 79.3575C66.0929 78.3906 67.3044 77.0283 68.4248 76.4189C69.5871 75.7922 71.8147 75.2061 73.5426 75.0712C74.2835 74.9908 74.8816 74.9204 74.8644 74.8785C74.8604 74.8214 74.3075 74.099 73.6456 73.255C71.44 70.4512 69.8584 67.3311 69.5141 65.0723C69.2125 63.0115 70.1741 60.9488 71.886 59.9679Z" fill="#C700A7"/>
<path d="M76.088 108.395C78.7568 106.314 83.426 104.093 88.2082 102.668L90.8392 101.896L90.5448 102.821C89.9692 104.656 87.4419 110.618 86.2769 112.853C84.5816 116.13 83.1341 118.227 81.9632 119.141C80.0147 120.641 77.8914 121.076 75.5628 120.42C72.2102 119.491 70.9569 116.549 72.4149 112.959C72.9785 111.57 74.5502 109.608 76.088 108.395Z" fill="#C700A7"/>
</g>
<defs>
<clipPath id="clip0_72_555">
<rect width="103.707" height="103.707" fill="white" transform="matrix(-0.656187 0.754598 0.754598 0.656187 68.2661 0.69165)"/>
</clipPath>
</defs>
</svg>
